HIERARCHY
ROOT Hips
{
	OFFSET -0.001795 -0.223333 0.028219
	CHANNELS 6 Xposition Yposition Zposition Zrotation Yrotation Xrotation 
	JOINT LeftUpLeg
	{
		OFFSET 0.069520 -0.091406 -0.006815
		CHANNELS 3 Zrotation Yrotation Xrotation
		JOINT LeftLeg
		{
			OFFSET 0.034277 -0.375199 -0.004496
			CHANNELS 3 Zrotation Yrotation Xrotation
			JOINT LeftFoot
			{
				OFFSET -0.013596 -0.397961 -0.043693
				CHANNELS 3 Zrotation Yrotation Xrotation
				JOINT LeftToe
				{
					OFFSET 0.026358 -0.055791 0.119288
					CHANNELS 3 Zrotation Yrotation Xrotation
					End Site
					{
						OFFSET 0.000000 0.000000 0.000000
					}
				}
			}
		}
	}
	JOINT RightUpLeg
	{
		OFFSET -0.067670 -0.090522 -0.004320
		CHANNELS 3 Zrotation Yrotation Xrotation
		JOINT RightLeg
		{
			OFFSET -0.038290 -0.382569 -0.008850
			CHANNELS 3 Zrotation Yrotation Xrotation
			JOINT RightFoot
			{
				OFFSET 0.015774 -0.398415 -0.042312
				CHANNELS 3 Zrotation Yrotation Xrotation
				JOINT RightToe
				{
					OFFSET -0.025372 -0.048144 0.123348
					CHANNELS 3 Zrotation Yrotation Xrotation
					End Site
					{
						OFFSET 0.000000 0.000000 0.000000
					}
				}
			}
		}
	}
	JOINT Spine
	{
		OFFSET -0.002533 0.108963 -0.026696
		CHANNELS 3 Zrotation Yrotation Xrotation
		JOINT Spine1
		{
			OFFSET 0.005487 0.135180 0.001092
			CHANNELS 3 Zrotation Yrotation Xrotation
			JOINT Spine2
			{
				OFFSET 0.001457 0.052922 0.025425
				CHANNELS 3 Zrotation Yrotation Xrotation
				JOINT Neck
				{
					OFFSET -0.002778 0.213870 -0.042857
					CHANNELS 3 Zrotation Yrotation Xrotation
					JOINT Head
					{
						OFFSET 0.005152 0.064970 0.051349
						CHANNELS 3 Zrotation Yrotation Xrotation
						End Site
						{
							OFFSET 0.000000 0.000000 0.000000
						}
					}
				}
				JOINT LeftShoulder
				{
					OFFSET 0.078845 0.121749 -0.034090
					CHANNELS 3 Zrotation Yrotation Xrotation
					JOINT LeftArm
					{
						OFFSET 0.090977 0.030469 -0.008868
						CHANNELS 3 Zrotation Yrotation Xrotation
						JOINT LeftForeArm
						{
							OFFSET 0.259612 -0.012772 -0.027456
							CHANNELS 3 Zrotation Yrotation Xrotation
							JOINT LeftHand
							{
								OFFSET 0.249234 0.008986 -0.001171
								CHANNELS 3 Zrotation Yrotation Xrotation
								End Site
								{
									OFFSET 0.000000 0.000000 0.000000
								}
							}
						}
					}
				}
				JOINT RightShoulder
				{
					OFFSET -0.081759 0.118833 -0.038615
					CHANNELS 3 Zrotation Yrotation Xrotation
					JOINT RightArm
					{
						OFFSET -0.096012 0.032551 -0.009143
						CHANNELS 3 Zrotation Yrotation Xrotation
						JOINT RightForeArm
						{
							OFFSET -0.253742 -0.013329 -0.021401
							CHANNELS 3 Zrotation Yrotation Xrotation
							JOINT RightHand
							{
								OFFSET -0.255298 0.007772 -0.005559
								CHANNELS 3 Zrotation Yrotation Xrotation
								End Site
								{
									OFFSET 0.000000 0.000000 0.000000
								}
							}
						}
					}
				}
			}
		}
	}
}
MOTION
Frames: 15
Frame Time: 0.050000
0.026225 0.956642 -0.018883 -1.718069 24.494580 1.772686 7.876568 -0.628318 3.825755 -3.184479 0.074237 -7.707358 1.934380 11.263260 15.835649 0.000000 0.000000 0.000000 -6.359854 -0.208082 -0.937086 4.648221 -0.759878 -4.209982 -5.165591 -11.558860 20.712560 0.000000 0.000000 0.000000 8.495676 -0.192782 -0.665093 -6.465034 2.833329 -16.828476 -0.702996 8.488909 30.986755 14.074883 -6.101750 -15.561602 0.000000 0.000000 0.000000 -11.469853 -3.312146 -3.190262 -48.014825 5.942301 -9.875661 -18.484879 -37.803434 5.193211 0.000000 0.000000 0.000000 21.368859 -7.293732 0.686100 39.976848 28.409268 1.533112 -1.918710 44.494876 4.316871 0.000000 0.000000 0.000000 
0.025878 0.956406 -0.019522 -1.681743 24.120046 1.859249 7.808467 -0.612070 3.832438 -3.269071 0.080306 -7.657467 2.003254 11.284280 15.723402 0.000000 0.000000 0.000000 -6.582265 -0.207115 -1.052867 4.653853 -0.755466 -4.154847 -4.960068 -11.273347 20.761720 0.000000 0.000000 0.000000 8.626868 -0.212364 -0.541170 -6.578686 2.843369 -17.101904 -0.776303 8.428512 30.791110 13.793818 -5.959923 -15.409996 0.000000 0.000000 0.000000 -11.578501 -3.277689 -3.181018 -47.070567 6.417897 -9.759426 -21.226066 -39.255988 6.315507 0.000000 0.000000 0.000000 21.227252 -7.272727 0.585341 39.650514 28.281301 1.494217 -0.246512 45.102241 5.006217 0.000000 0.000000 0.000000 
0.025434 0.956367 -0.020137 -1.713391 23.763855 1.835467 7.737687 -0.595588 3.849206 -3.245371 0.092598 -7.419729 2.193188 11.508728 15.734521 0.000000 0.000000 0.000000 -6.557489 -0.194323 -1.143390 4.755579 -0.765561 -4.120965 -4.879752 -11.194845 20.924527 0.000000 0.000000 0.000000 8.685706 -0.236251 -0.318347 -6.405452 2.776156 -17.496807 -0.974208 8.632453 30.674575 13.851308 -6.065147 -15.199715 0.000000 0.000000 0.000000 -11.421122 -3.247725 -3.148023 -46.610154 6.816659 -9.763322 -24.442975 -40.991774 7.668685 0.000000 0.000000 0.000000 21.020078 -7.536145 0.363812 39.593294 28.329415 1.568764 1.549644 45.738505 5.847221 0.000000 0.000000 0.000000 
0.024897 0.956267 -0.020608 -1.638777 23.226639 1.895268 7.646986 -0.570323 3.697308 -3.142233 0.111528 -7.052480 2.271692 11.557633 15.681874 0.000000 0.000000 0.000000 -6.765469 -0.188707 -1.287456 4.881273 -0.776288 -3.998438 -4.559068 -10.752397 20.732755 0.000000 0.000000 0.000000 8.806971 -0.246465 -0.267990 -6.417382 2.764792 -17.621842 -1.132507 8.365195 30.375120 13.540917 -5.894398 -15.197667 0.000000 0.000000 0.000000 -11.691813 -3.162307 -3.152564 -45.785239 7.224696 -9.639304 -28.085636 -42.513634 9.387477 0.000000 0.000000 0.000000 20.687204 -7.212836 0.352877 39.552753 28.784097 1.828269 2.726619 46.011597 6.288440 0.000000 0.000000 0.000000 
0.024152 0.956017 -0.020975 -1.648199 22.837366 1.790190 7.570561 -0.554469 3.921738 -3.082880 0.112624 -7.255581 2.432555 11.810446 15.927897 0.000000 0.000000 0.000000 -6.725385 -0.185668 -1.160875 4.893200 -0.773867 -4.174271 -4.472049 -10.680873 20.987149 0.000000 0.000000 0.000000 8.887324 -0.256818 -0.160273 -6.383280 2.734512 -17.989651 -1.140653 8.385478 30.368161 13.436749 -5.887117 -15.047778 0.000000 0.000000 0.000000 -11.790494 -3.317796 -3.076254 -45.238805 7.395799 -9.532252 -31.132723 -44.289951 11.005267 0.000000 0.000000 0.000000 20.573576 -6.957819 0.444140 39.533887 29.363285 2.064906 3.196820 46.199256 6.475145 0.000000 0.000000 0.000000 
0.023191 0.955820 -0.021311 -1.689934 22.234184 1.675020 7.641709 -0.551455 4.156025 -3.123887 0.118328 -7.355984 2.562109 11.949218 16.014725 0.000000 0.000000 0.000000 -6.757399 -0.182171 -1.043749 4.947987 -0.774313 -4.234879 -4.020224 -10.037697 20.769266 0.000000 0.000000 0.000000 9.187832 -0.284358 0.010962 -6.549500 2.766432 -18.069790 -1.206763 8.308886 30.258854 13.294634 -5.772082 -15.246939 0.000000 0.000000 0.000000 -12.149527 -3.422606 -3.046134 -44.475406 6.949453 -9.126828 -33.985023 -46.173368 12.784598 0.000000 0.000000 0.000000 20.878970 -6.472327 0.686668 39.388246 30.396209 2.385650 3.081338 46.187665 6.324839 0.000000 0.000000 0.000000 
0.021996 0.955493 -0.021645 -1.631287 21.575793 1.548845 7.564871 -0.530439 4.571569 -2.961306 0.121955 -7.700283 2.653043 12.166731 16.555879 0.000000 0.000000 0.000000 -6.793558 -0.178798 -0.912632 5.145972 -0.792724 -4.343022 -3.774385 -9.763293 20.947341 0.000000 0.000000 0.000000 9.225447 -0.324756 0.423201 -6.523824 2.741417 -18.290614 -1.191292 8.484818 30.066383 13.111617 -5.512140 -15.674372 0.000000 0.000000 0.000000 -12.601242 -3.762935 -2.991257 -43.541438 6.597704 -8.683956 -36.015523 -48.275176 14.383306 0.000000 0.000000 0.000000 21.064573 -6.115630 0.877915 39.696197 31.186271 2.736560 2.639377 46.482016 6.167141 0.000000 0.000000 0.000000 
0.020687 0.955369 -0.021966 -1.612487 20.925099 1.421666 7.567480 -0.518189 4.910657 -2.920916 0.127270 -7.899402 2.833570 12.310080 16.467169 0.000000 0.000000 0.000000 -6.713081 -0.170911 -0.752878 5.185379 -0.790051 -4.392436 -3.302752 -9.097143 20.794926 0.000000 0.000000 0.000000 9.421177 -0.373332 0.815290 -6.647989 2.747706 -18.642054 -1.143967 8.402171 30.024310 12.851414 -5.281841 -15.982217 0.000000 0.000000 0.000000 -12.955512 -3.940009 -2.912748 -42.644162 5.847630 -8.172548 -36.541541 -49.859979 15.280789 0.000000 0.000000 0.000000 21.218763 -5.514936 1.162827 39.885637 31.821239 2.999923 2.946514 46.973807 6.319621 0.000000 0.000000 0.000000 
0.019345 0.955157 -0.022300 -1.528249 20.379118 1.358941 7.365731 -0.483712 5.311576 -2.670930 0.126706 -8.444279 2.802386 12.360346 16.971205 0.000000 0.000000 0.000000 -6.729869 -0.163759 -0.714349 5.170869 -0.781491 -4.256044 -3.009908 -8.708131 20.707674 0.000000 0.000000 0.000000 9.399892 -0.407988 1.165521 -6.515354 2.712945 -18.549742 -1.279206 8.376076 29.586014 12.697639 -5.120557 -16.284588 0.000000 0.000000 0.000000 -13.119944 -4.429470 -2.651872 -42.312486 4.842065 -7.724550 -34.606736 -51.108229 14.908884 0.000000 0.000000 0.000000 21.449981 -5.018973 1.401110 40.268318 32.384068 3.309123 2.964020 48.419775 6.585006 0.000000 0.000000 0.000000 
0.018101 0.954929 -0.022524 -1.448796 19.881225 1.504472 7.139395 -0.445288 5.417506 -2.677021 0.130127 -8.634984 3.052839 12.631401 16.963415 0.000000 0.000000 0.000000 -6.724564 -0.151532 -0.688032 5.441204 -0.809189 -4.329252 -2.893590 -8.601089 20.524372 0.000000 0.000000 0.000000 9.562965 -0.422785 1.201690 -6.567445 2.712334 -18.651792 -1.527583 8.023584 29.576019 12.258652 -4.759815 -16.717603 0.000000 0.000000 0.000000 -13.074612 -4.767904 -2.327988 -42.398854 3.326976 -7.284651 -29.865121 -51.225915 12.871292 0.000000 0.000000 0.000000 21.332414 -4.558511 1.498263 40.772720 32.759634 3.600253 4.370942 50.182452 7.546376 0.000000 0.000000 0.000000 
0.016992 0.954643 -0.022650 -1.362858 19.831904 1.525598 7.005129 -0.430732 5.754172 -2.702740 0.120641 -9.089794 3.261271 12.933832 17.151005 0.000000 0.000000 0.000000 -6.661402 -0.153528 -0.558800 5.333984 -0.794448 -4.428709 -2.784594 -8.408419 20.241785 0.000000 0.000000 0.000000 9.664782 -0.432823 1.236722 -6.404512 2.671744 -18.602194 -1.858515 7.789746 29.439172 12.115064 -4.626231 -16.951599 0.000000 0.000000 0.000000 -12.887455 -5.418030 -1.920026 -42.454475 1.620363 -6.748424 -24.308133 -50.327268 10.123045 0.000000 0.000000 0.000000 21.169847 -4.349074 1.528049 41.178120 32.733575 3.726444 5.881815 52.387425 8.797419 0.000000 0.000000 0.000000 
0.016066 0.954203 -0.022685 -1.196463 19.644317 1.644500 6.751585 -0.394709 5.846383 -2.695590 0.119840 -9.291684 3.555219 13.338170 17.337996 0.000000 0.000000 0.000000 -6.763426 -0.155096 -0.497952 5.633687 -0.829019 -4.491379 -2.777801 -8.412226 19.830034 0.000000 0.000000 0.000000 9.780858 -0.442902 1.250741 -6.374965 2.661427 -18.585824 -2.276651 7.484163 29.320473 11.955954 -4.451335 -17.397438 0.000000 0.000000 0.000000 -12.908055 -5.797102 -1.655339 -42.481712 -0.060106 -6.215424 -19.899832 -48.784075 7.955254 0.000000 0.000000 0.000000 20.799081 -4.123309 1.484770 41.146376 32.915644 3.874489 8.455396 54.196486 10.497519 0.000000 0.000000 0.000000 
0.015139 0.953867 -0.022673 -1.103281 19.749368 1.716612 6.572714 -0.374535 5.757221 -2.611661 0.121080 -9.232389 3.696572 13.532225 17.353694 0.000000 0.000000 0.000000 -6.696556 -0.155610 -0.445484 5.582204 -0.823860 -4.485134 -2.659829 -8.178061 19.621784 0.000000 0.000000 0.000000 9.731341 -0.448342 1.297342 -6.390458 2.661289 -18.684932 -2.461012 7.344786 29.284876 11.821777 -4.365311 -17.401670 0.000000 0.000000 0.000000 -12.927634 -6.267582 -1.432937 -42.456075 -1.046963 -5.883225 -16.731439 -47.484907 6.413169 0.000000 0.000000 0.000000 20.512831 -3.906535 1.550908 40.648759 32.822881 3.769156 10.094837 55.364649 11.647334 0.000000 0.000000 0.000000 
0.014332 0.953638 -0.022642 -1.002042 19.558636 1.653214 6.430914 -0.351746 5.906714 -2.685168 0.118481 -9.426731 3.804893 13.727650 17.663052 0.000000 0.000000 0.000000 -6.820988 -0.172225 -0.174299 5.662768 -0.830825 -4.627115 -2.501381 -7.939172 19.469096 0.000000 0.000000 0.000000 9.572179 -0.467428 1.564083 -6.275090 2.611911 -19.059296 -2.604281 7.473338 29.398558 11.861883 -4.349937 -17.555430 0.000000 0.000000 0.000000 -12.711237 -5.853927 -1.564016 -42.740730 -1.370902 -5.866894 -16.059050 -46.072048 5.948064 0.000000 0.000000 0.000000 19.859977 -4.063650 1.355889 39.953937 33.233490 3.851063 11.238183 55.724730 12.341023 0.000000 0.000000 0.000000 
0.013645 0.953494 -0.022578 -1.007740 19.471117 1.523590 6.233081 -0.324906 6.172952 -2.539044 0.115917 -9.730543 3.746948 13.683817 17.825192 0.000000 0.000000 0.000000 -6.777516 -0.189896 0.195270 5.786528 -0.844140 -5.016286 -2.280439 -7.623327 19.791960 0.000000 0.000000 0.000000 9.677145 -0.454589 1.453889 -6.626843 2.688565 -19.279770 -2.474322 7.601760 29.929732 11.857202 -4.395119 -17.365611 0.000000 0.000000 0.000000 -12.778115 -5.413025 -1.786209 -42.773990 -1.228556 -5.966933 -17.138234 -45.328363 6.295813 0.000000 0.000000 0.000000 19.145661 -4.083295 1.255839 39.181554 33.857861 3.966997 11.092255 55.476652 12.137916 0.000000 0.000000 0.000000 
